<?xml version="1.0" encoding="UTF-8" standalone="no"?>
<svg
   xmlns:dc="http://purl.org/dc/elements/1.1/"
   xmlns:cc="http://creativecommons.org/ns#"
   xmlns:rdf="http://www.w3.org/1999/02/22-rdf-syntax-ns#"
   xmlns:svg="http://www.w3.org/2000/svg"
   xmlns="http://www.w3.org/2000/svg"
   xmlns:sodipodi="http://sodipodi.sourceforge.net/DTD/sodipodi-0.dtd"
   xmlns:inkscape="http://www.inkscape.org/namespaces/inkscape"
   height="64"
   version="1.1"
   viewBox="0 0 64 64"
   width="64"
   x="0px"
   y="0px"
   id="svg2"
   inkscape:version="0.48+devel r10146"
   sodipodi:docname="meedav.svg"
   inkscape:export-filename="S:\Projekte\meedav\meedav\meedav80.png"
   inkscape:export-xdpi="112.5"
   inkscape:export-ydpi="112.5">
  <metadata
     id="metadata18">
    <rdf:RDF>
      <cc:Work
         rdf:about="">
        <dc:format>image/svg+xml</dc:format>
        <dc:type
           rdf:resource="http://purl.org/dc/dcmitype/StillImage" />
      </cc:Work>
    </rdf:RDF>
  </metadata>
  <defs
     id="defs16">
    <inkscape:perspective
       sodipodi:type="inkscape:persp3d"
       inkscape:vp_x="0 : 22 : 1"
       inkscape:vp_y="0 : 1000 : 0"
       inkscape:vp_z="44 : 22 : 1"
       inkscape:persp3d-origin="22 : 14.666667 : 1"
       id="perspective2836" />
    <filter
       id="filter1241"
       inkscape:label="Black hole"
       inkscape:menu="Morphology"
       inkscape:menu-tooltip="Creates a black light inside and outside"
       height="1.5"
       width="1.5"
       y="-0.25"
       x="-0.25"
       color-interpolation-filters="sRGB">
      <feGaussianBlur
         id="feGaussianBlur1243"
         stdDeviation="5"
         in="SourceAlpha"
         result="result1" />
      <feComposite
         id="feComposite1245"
         in2="result1"
         operator="arithmetic"
         k2="3.2"
         k1="-1"
         k4="-2"
         result="result3"
         k3="0" />
      <feColorMatrix
         id="feColorMatrix1247"
         values="1 0 0 0 0 0 1 0 0 0 0 0 1 0 0 0 0 0 10 0 "
         result="result2" />
      <feComposite
         id="feComposite1249"
         in2="result2"
         result="fbSourceGraphic"
         in="SourceGraphic"
         operator="out" />
      <feBlend
         id="feBlend1251"
         in2="fbSourceGraphic"
         mode="multiply"
         in="result1"
         result="result91" />
      <feBlend
         id="feBlend1253"
         in2="result91"
         mode="screen"
         in="fbSourceGraphic" />
    </filter>
  </defs>
  <sodipodi:namedview
     pagecolor="#ffffff"
     bordercolor="#666666"
     borderopacity="1"
     objecttolerance="10"
     gridtolerance="10"
     guidetolerance="10"
     inkscape:pageopacity="0"
     inkscape:pageshadow="2"
     inkscape:window-width="1280"
     inkscape:window-height="962"
     id="namedview14"
     showgrid="false"
     inkscape:zoom="7.5853271"
     inkscape:cx="51.168308"
     inkscape:cy="47.340911"
     inkscape:window-x="1912"
     inkscape:window-y="-8"
     inkscape:window-maximized="1"
     inkscape:current-layer="g3" />
  <g
     transform="matrix(0.18308778,0,0,0.18308778,7.1374285,22.579352)"
     id="g3">
    <g
       id="g37"
       transform="matrix(0.6842038,0,0,0.6842038,183.0705,17.169468)">
      <path
         style="fill:#acd299"
         d="m -155.44785,257.64577 c -89.9342,-19.90619 -119.64313,-72.12017 -119.88835,-210.70592 -0.29521,-166.84144 50.49933,-218.3038 215.470915,-218.3038 164.971585,0 215.766125,51.46236 215.470915,218.3038 -0.30585,172.85612 -46.28027,218.72962 -218.201846,217.72289 -34.546271,-0.20229 -76.329504,-3.35993 -92.851634,-7.01697 z"
         id="path51"
         inkscape:connector-curvature="0" />
      <path
         style="fill:#8cc46f"
         d="m -117.21483,261.94705 c -71.58199,-9.26174 -120.76547,-43.46374 -142.85717,-99.34234 -10.65161,-26.9421 -12.29417,-41.38625 -12.53208,-110.202999 -0.2429,-70.261429 1.15982,-82.894457 12.43245,-111.968151 17.94707,-46.28799 35.41843,-66.69881 71.10355,-83.06634 16.98911,-7.79232 36.79152,-16.86854 44.00534,-20.16937 17.18644,-7.864 153.208468,-7.864 170.394908,0 7.213824,3.30083 27.016233,12.37705 44.005346,20.16937 35.685116,16.36753 53.156476,36.77835 71.103546,83.06634 11.27263,29.073694 12.67535,41.706722 12.43245,111.968151 -0.23792,68.816749 -1.88047,83.260899 -12.53208,110.202999 -26.65505,67.42109 -78.593423,96.02715 -181.090201,99.73893 -31.542248,1.14226 -65.951969,0.96379 -76.466059,-0.39659 z"
         id="path49"
         inkscape:connector-curvature="0" />
      <path
         style="fill:#7bc158"
         d="m -117.21483,262.01937 c -20.84864,-2.61866 -25.82195,-4.38781 -72.24984,-25.70139 -29.51607,-13.5499 -64.23623,-49.13897 -64.33033,-65.94028 -0.0185,-3.30431 -4.12417,-13.38135 -9.12368,-22.39342 -7.24748,-13.06422 -9.17812,-32.54507 -9.52461,-96.106569 -0.27941,-51.25566574 1.74904,-82.459212 5.68094,-87.389776 3.36354,-4.217835 9.02024,-16.691633 12.57045,-27.719556 10.07189,-31.286004 35.4331,-62.079219 61.38568,-74.533599 29.19592,-14.01083 96.316818,-28.29857 132.940935,-28.29857 36.624117,0 103.74501,14.28774 132.940935,28.29857 25.95258,12.45438 51.31379,43.247595 61.38568,74.533599 3.55021,11.027923 9.20691,23.501721 12.57045,27.719556 3.9319,4.930564 5.96035,36.13411026 5.68094,87.389776 -0.3465,63.561499 -2.27714,83.042349 -9.52461,96.106569 -4.99952,9.01207 -9.10517,19.08911 -9.12367,22.39342 -0.0944,16.85312 -34.798548,52.37823 -64.33034,65.85212 -17.207238,7.85081 -35.651829,16.46134 -40.987985,19.13452 -10.967696,5.49433 -116.788541,10.31919 -145.960945,6.65503 z"
         id="path47"
         inkscape:connector-curvature="0" />
      <path
         style="fill:#797d77"
         d="m -119.87488,261.73506 c -11.97712,-1.42802 -23.03739,-4.37634 -24.57838,-6.55182 -1.54099,-2.17549 -13.86207,-7.18397 -27.38018,-11.12997 -34.00472,-9.92614 -73.72392,-50.15759 -82.71776,-83.78455 -3.72033,-13.9099 -8.49162,-24.22314 -10.60286,-22.91831 -5.85096,3.61608 -12.06933,-91.86359 -7.72957,-118.683244 7.3865,-45.64846 29.89793,-105.677256 46.40947,-123.755076 8.9737,-9.82494 28.01122,-23.26461 42.3056,-29.86592 23.7214,-10.95482 34.57053,-12.00239 124.303275,-12.00239 89.732742,0 100.581877,1.04757 124.303275,12.00239 14.294379,6.60131 33.331898,20.04098 42.3056,29.86592 16.51154,18.07782 39.02298,78.106616 46.40947,123.755076 4.33976,26.819654 -1.87861,122.299324 -7.72957,118.683244 -2.11124,-1.30483 -6.88253,9.00841 -10.60286,22.91831 -8.99384,33.62696 -48.713039,73.85841 -82.717762,83.78455 -13.518106,3.946 -25.972012,9.1694 -27.675343,11.60756 -3.653111,5.22906 -112.841931,9.82523 -144.302405,6.07423 z"
         id="path45"
         inkscape:connector-curvature="0" />
      <path
         style="fill:#6cb946"
         d="m -145.93664,251.73476 c -17.29901,-4.36482 -38.37534,-11.51585 -46.83628,-15.89118 -23.88372,-12.35076 -54.17274,-49.24196 -61.76701,-75.23056 -3.78532,-12.95386 -9.27036,-25.18906 -12.18899,-27.18934 -2.91863,-2.00028 -5.43123,-32.72325 -5.58357,-68.273259 -0.24196,-56.466292 1.60637,-70.1814947 14.62277,-108.505587 17.19881,-50.63835 36.26598,-74.393784 73.52116,-91.598664 23.7214,-10.95482 34.57053,-12.00239 124.303275,-12.00239 89.732742,0 100.581877,1.04757 124.303275,12.00239 37.25518,17.20488 56.32235,40.960314 73.52116,91.598664 13.0164,38.3240923 14.86473,52.039295 14.62276,108.505587 -0.15233,35.550009 -2.66493,66.272979 -5.58356,68.273259 -2.91862,2.00028 -8.53514,14.69715 -12.48114,28.21525 -10.2271,35.03573 -49.092532,72.50166 -87.876203,84.71187 -41.2453425,12.98522 -150.361437,16.03582 -192.577647,5.38396 z"
         id="path43"
         inkscape:connector-curvature="0" />
      <path
         style="fill:#63b63a"
         d="m -125.40762,254.76133 c -6.00805,-2.63781 -22.7161,-7.81696 -37.12902,-11.50921 -14.41291,-3.69226 -35.58697,-13.50925 -47.05346,-21.81554 -22.505,-16.30253 -49.57741,-63.57555 -49.71675,-86.81389 -0.0575,-9.58348 -1.51103,-11.69667 -4.64545,-6.75357 -6.66923,10.51763 -12.17818,-52.488207 -8.04604,-92.022474 1.89364,-18.117358 5.54272,-34.238358 8.10905,-35.8244387 2.56634,-1.5860862 4.66607,-8.7999429 4.66607,-16.0307973 0,-7.230854 4.14198,-21.832822 9.2044,-32.448823 l 9.20439,-19.301818 180.949145,0 180.949135,0 9.2044,19.301818 c 5.06242,10.616001 9.2044,25.217969 9.2044,32.448823 0,7.2308544 2.09973,14.4447111 4.66606,16.0307973 2.56634,1.5860807 6.21542,17.7070807 8.10906,35.8244387 3.85101,36.844557 -1.36063,102.652694 -7.36068,92.944394 -2.14331,-3.46795 -5.37761,3.11552 -7.23404,14.72499 -4.48792,28.06593 -30.72041,68.3321 -53.8158,82.60583 -31.484249,19.45834 -79.7012532,30.38918 -140.991604,31.96293 -31.542249,0.80992 -62.265216,-0.68564 -68.273266,-3.32346 z"
         id="path41"
         inkscape:connector-curvature="0" />
      <path
         style="fill:#55af28"
         d="m -114.4839,254.49057 c 1.96592,-3.18093 -3.51622,-5.46186 -13.12742,-5.46186 -26.44978,0 -73.35115,-20.30059 -92.46681,-40.02296 -19.16872,-19.7771 -39.14509,-65.71979 -39.14509,-90.02792 0,-8.37905 -2.9494,-18.18403 -6.55423,-21.788859 -3.60483,-3.604828 -4.21929,-6.591871 -1.36547,-6.63787 2.85383,-0.04588 2.4877,-1.889378 -0.81361,-4.096396 -4.28879,-2.867166 -3.69926,-12.199034 2.06498,-32.687529 l 8.06737,-28.67477 197.958895,0 197.958895,0 8.06737,28.67477 c 5.76424,20.488495 6.35376,29.820363 2.06499,32.687529 -3.30132,2.207018 -3.66745,4.050396 -0.81362,4.096396 2.85382,0.046 2.23936,3.033042 -1.36547,6.63787 -3.60483,3.604829 -6.55423,13.343979 -6.55423,21.642549 0,25.18513 -20.73523,72.3577 -40.02296,91.05211 -20.230793,19.60845 -65.86821,39.14508 -91.4426428,39.14508 -9.7087258,0 -15.2421428,2.27688 -13.2737208,5.46186 2.1694567,3.51025 -17.3466254,5.46186 -54.6186114,5.46186 -37.271986,0 -56.788065,-1.95161 -54.618615,-5.46186 z"
         id="path39"
         inkscape:connector-curvature="0" />
    </g>
    <text
       xml:space="preserve"
       style="font-size:24px;font-style:normal;font-weight:normal;line-height:125%;letter-spacing:0px;word-spacing:0px;fill:#000000;fill-opacity:1;stroke:none;font-family:Sans"
       x="13.249264"
       y="36.815075"
       id="text15"
       sodipodi:linespacing="125%"
       transform="matrix(5.461861,0,0,5.461861,-36.103418,-17.688345)"><tspan
         sodipodi:role="line"
         id="tspan17"
         x="13.249264"
         y="36.815075" /></text>
    <g
       style="font-size:131.08467102px;font-style:normal;font-variant:normal;font-weight:normal;font-stretch:normal;line-height:80.00000119%;letter-spacing:0px;word-spacing:0px;fill:#ffffff;fill-opacity:1;stroke:none;font-family:Trebuchet MS;-inkscape-font-specification:Trebuchet MS"
       id="text21">
      <path
         d="m 116.10194,39.739292 -11.13707,-60.229822 -20.481983,61.509946 -3.200309,0 -21.058036,-61.509946 -10.881052,60.229822 -12.161175,0 17.537695,-93.769064 5.824563,0 22.338159,68.422614 20.609988,-68.422614 5.76056,0 19.00984,93.769064 z"
         style=""
         id="path23" />
      <path
         d="m 195.21359,6.6480935 -49.41278,0 c -2e-5,8.0221335 2.19753,14.1880565 6.59264,18.4977885 3.88301,3.75504 8.87549,5.632553 14.97745,5.632544 6.95529,9e-6 12.75851,-2.026852 17.40968,-6.080588 l 5.12049,8.768848 c -1.87757,1.877519 -4.75784,3.499007 -8.64083,4.86447 -4.86452,1.792173 -10.2837,2.688259 -16.25757,2.68826 -8.61953,-10e-7 -15.93756,-2.922948 -21.95412,-8.768848 -6.69933,-6.443275 -10.04898,-15.105437 -10.04898,-25.9865117 0,-11.3077149 3.435,-20.3752493 10.305,-27.2026293 6.14457,-6.101857 13.41994,-9.152815 21.82611,-9.152885 9.77157,7e-5 17.43096,2.752333 22.97822,8.256798 5.37646,5.291235 8.06471,12.3105728 8.06478,21.05803576 -7e-5,2.68829764 -0.3201,5.16320114 -0.96009,7.42471774 z M 165.70674,-19.850468 c -5.41923,6e-5 -9.96366,1.74956 -13.63332,5.248507 -3.49903,3.328373 -5.48322,7.4674357 -5.95258,12.4172006 l 37.95567,0 c -5e-5,-4.9070941 -1.5362,-9.0034856 -4.60844,-12.2891876 -3.37104,-3.584289 -7.95815,-5.37646 -13.76133,-5.37652 z"
         style=""
         id="path25" />
      <path
         d="m 266.6445,6.6480935 -49.41278,0 c -2e-5,8.0221335 2.19753,14.1880565 6.59264,18.4977885 3.88301,3.75504 8.87549,5.632553 14.97745,5.632544 6.95529,9e-6 12.75851,-2.026852 17.40968,-6.080588 l 5.12049,8.768848 c -1.87757,1.877519 -4.75785,3.499007 -8.64083,4.86447 -4.86452,1.792173 -10.28371,2.688259 -16.25757,2.68826 -8.61953,-10e-7 -15.93756,-2.922948 -21.95413,-8.768848 -6.69932,-6.443275 -10.04897,-15.105437 -10.04897,-25.9865117 0,-11.3077149 3.43499,-20.3752493 10.305,-27.2026293 6.14457,-6.101857 13.41993,-9.152815 21.82611,-9.152885 9.77156,7e-5 17.43096,2.752333 22.97822,8.256798 5.37645,5.291235 8.06471,12.3105728 8.06478,21.05803576 -7e-5,2.68829764 -0.3201,5.16320114 -0.96009,7.42471774 z M 237.13764,-19.850468 c -5.41922,6e-5 -9.96365,1.74956 -13.63331,5.248507 -3.49903,3.328373 -5.48322,7.4674357 -5.95258,12.4172006 l 37.95567,0 c -6e-5,-4.9070941 -1.5362,-9.0034856 -4.60845,-12.2891876 -3.37104,-3.584289 -7.95814,-5.37646 -13.76133,-5.37652 z"
         style=""
         id="path27" />
      <path
         d="m 64.384944,144.60703 -18.881825,0 0,-93.769063 c 12.033142,-0.426614 19.735212,-0.639968 23.106234,-0.640062 13.099887,9.4e-5 23.468879,3.979141 31.107007,11.937154 7.638,7.958177 11.45703,18.55119 11.45711,31.779071 -8e-5,33.79528 -15.596237,50.6929 -46.788526,50.6929 z m -6.080587,-82.24795 0,70.08677 c 2.858917,0.42672 6.40059,0.64008 10.625027,0.64007 8.960824,1e-5 16.001497,-3.36031 21.122041,-10.08098 5.120436,-6.72062 7.680681,-16.05485 7.680743,-28.002704 -6.2e-5,-22.18874 -9.963682,-33.283135 -29.89089,-33.283218 -1.194812,8.3e-5 -4.373783,0.213437 -9.536921,0.640062 z"
         style=""
         id="path29" />
      <path
         d="m 163.65854,136.73427 c -4.86451,6.10192 -12.31056,9.15288 -22.33816,9.15288 -5.37654,0 -10.03832,-1.95218 -13.98535,-5.85656 -3.94706,-3.90437 -5.92058,-8.75817 -5.92057,-14.56141 -1e-5,-6.95531 3.04028,-12.83321 9.12088,-17.6337 6.08056,-4.80043 13.83597,-7.20066 23.26625,-7.2007 2.5602,4e-5 5.46181,0.55476 8.70484,1.66416 -5e-5,-11.094351 -4.94986,-16.641549 -14.84944,-16.641608 -7.59542,5.9e-5 -13.44131,2.048255 -17.53769,6.144594 l -5.1205,-10.176984 c 2.30421,-1.877449 5.49385,-3.48827 9.56893,-4.832467 4.07504,-1.34406 7.96874,-2.016125 11.68113,-2.016195 9.94225,7e-5 17.16427,2.26162 21.66609,6.784656 4.50171,4.523163 6.75259,11.713184 6.75265,21.570084 l 0,24.57838 c -6e-5,6.01659 1.79212,10.02764 5.37652,12.03316 l 0,6.08059 c -4.94987,0 -8.65156,-0.70407 -11.10507,-2.11221 -2.45362,-1.40813 -4.21379,-3.73369 -5.28051,-6.97667 z m -1.15211,-25.79449 c -3.84042,-0.85339 -6.52867,-1.28009 -8.06478,-1.28013 -6.14463,4e-5 -11.15844,1.57886 -15.04146,4.73646 -3.88306,3.15767 -5.82458,6.89136 -5.82456,11.20108 -2e-5,7.12604 4.20305,10.68904 12.60922,10.68904 6.14456,0 11.58508,-2.92294 16.32158,-8.76885 z"
         style=""
         id="path31" />
      <path
         d="m 218.51184,145.88715 -3.20031,0 -29.37884,-70.022764 13.31328,0 18.11375,48.004644 18.49779,-48.004644 12.73723,0 z"
         style=""
         id="path33" />
    </g>
  </g>
</svg>
