<?xml version="1.0" encoding="UTF-8" standalone="no"?>
<svg
   xmlns:dc="http://purl.org/dc/elements/1.1/"
   xmlns:cc="http://creativecommons.org/ns#"
   xmlns:rdf="http://www.w3.org/1999/02/22-rdf-syntax-ns#"
   xmlns:svg="http://www.w3.org/2000/svg"
   xmlns="http://www.w3.org/2000/svg"
   xmlns:sodipodi="http://sodipodi.sourceforge.net/DTD/sodipodi-0.dtd"
   xmlns:inkscape="http://www.inkscape.org/namespaces/inkscape"
   height="64"
   version="1.1"
   viewBox="0 0 64 64"
   width="64"
   x="0px"
   y="0px"
   id="svg2"
   inkscape:version="0.48+devel r10146"
   sodipodi:docname="meedav.svg"
   inkscape:export-filename="S:\Projekte\meedav\meedav\meedav64.png"
   inkscape:export-xdpi="90"
   inkscape:export-ydpi="90">
  <metadata
     id="metadata18">
    <rdf:RDF>
      <cc:Work
         rdf:about="">
        <dc:format>image/svg+xml</dc:format>
        <dc:type
           rdf:resource="http://purl.org/dc/dcmitype/StillImage" />
      </cc:Work>
    </rdf:RDF>
  </metadata>
  <defs
     id="defs16">
    <inkscape:perspective
       sodipodi:type="inkscape:persp3d"
       inkscape:vp_x="0 : 22 : 1"
       inkscape:vp_y="0 : 1000 : 0"
       inkscape:vp_z="44 : 22 : 1"
       inkscape:persp3d-origin="22 : 14.666667 : 1"
       id="perspective2836" />
    <filter
       id="filter1241"
       inkscape:label="Black hole"
       inkscape:menu="Morphology"
       inkscape:menu-tooltip="Creates a black light inside and outside"
       height="1.5"
       width="1.5"
       y="-0.25"
       x="-0.25"
       color-interpolation-filters="sRGB">
      <feGaussianBlur
         id="feGaussianBlur1243"
         stdDeviation="5"
         in="SourceAlpha"
         result="result1" />
      <feComposite
         id="feComposite1245"
         in2="result1"
         operator="arithmetic"
         k2="3.2"
         k1="-1"
         k4="-2"
         result="result3"
         k3="0" />
      <feColorMatrix
         id="feColorMatrix1247"
         values="1 0 0 0 0 0 1 0 0 0 0 0 1 0 0 0 0 0 10 0 "
         result="result2" />
      <feComposite
         id="feComposite1249"
         in2="result2"
         result="fbSourceGraphic"
         in="SourceGraphic"
         operator="out" />
      <feBlend
         id="feBlend1251"
         in2="fbSourceGraphic"
         mode="multiply"
         in="result1"
         result="result91" />
      <feBlend
         id="feBlend1253"
         in2="result91"
         mode="screen"
         in="fbSourceGraphic" />
    </filter>
  </defs>
  <sodipodi:namedview
     pagecolor="#ffffff"
     bordercolor="#666666"
     borderopacity="1"
     objecttolerance="10"
     gridtolerance="10"
     guidetolerance="10"
     inkscape:pageopacity="0"
     inkscape:pageshadow="2"
     inkscape:window-width="1280"
     inkscape:window-height="962"
     id="namedview14"
     showgrid="false"
     inkscape:zoom="7.5853271"
     inkscape:cx="23.725274"
     inkscape:cy="24.964296"
     inkscape:window-x="1912"
     inkscape:window-y="-8"
     inkscape:window-maximized="1"
     inkscape:current-layer="g3" />
  <g
     transform="matrix(0.18308778,0,0,0.18308778,7.1374285,22.579352)"
     id="g3">
    <path
       d="m 67.061698,-111.7305 c -3.382009,-0.55842 -6.685367,-0.69371 -9.878613,-0.44202 -7.616385,0.49937 -15.238425,1.03628 -22.856089,1.56044 -19.914528,1.59191 -35.0470521,17.979713 -35.0470521,40.615575 l 0,266.942755 22.3212601,20.76396 45.413303,-329.42341 0.04719,-0.0173 z"
       style="fill:#006225"
       id="path5"
       sodipodi:nodetypes="cccccccc"
       inkscape:connector-curvature="0" />
    <path
       d="m 273.61593,139.3898 c 0,19.66284 -12.19096,37.86277 -27.63809,40.53692 l -224.313715,37.68974 0,-289.122442 c 0,-26.301015 20.984186,-44.359378 45.444764,-40.316698 l 206.538501,33.851555 0,217.392385 z"
       style="fill:#80c342"
       id="path7"
       inkscape:connector-curvature="0" />
    <text
       xml:space="preserve"
       style="font-size:24px;font-style:normal;font-weight:normal;line-height:125%;letter-spacing:0px;word-spacing:0px;fill:#000000;fill-opacity:1;stroke:none;font-family:Sans"
       x="13.249264"
       y="36.815075"
       id="text15"
       sodipodi:linespacing="125%"
       transform="matrix(5.461861,0,0,5.461861,-36.103418,-17.688345)"><tspan
         sodipodi:role="line"
         id="tspan17"
         x="13.249264"
         y="36.815075" /></text>
    <g
       style="font-size:131.08467102px;font-style:normal;font-variant:normal;font-weight:normal;font-stretch:normal;line-height:80.00000119%;letter-spacing:0px;word-spacing:0px;fill:#ffffff;fill-opacity:1;stroke:none;font-family:Trebuchet MS;-inkscape-font-specification:Trebuchet MS"
       id="text21">
      <path
         d="m 116.10194,39.739292 -11.13707,-60.229822 -20.481983,61.509946 -3.200309,0 -21.058036,-61.509946 -10.881052,60.229822 -12.161175,0 17.537695,-93.769064 5.824563,0 22.338159,68.422614 20.609988,-68.422614 5.76056,0 19.00984,93.769064 z"
         style=""
         id="path23" />
      <path
         d="m 195.21359,6.6480935 -49.41278,0 c -2e-5,8.0221335 2.19753,14.1880565 6.59264,18.4977885 3.88301,3.75504 8.87549,5.632553 14.97745,5.632544 6.95529,9e-6 12.75851,-2.026852 17.40968,-6.080588 l 5.12049,8.768848 c -1.87757,1.877519 -4.75784,3.499007 -8.64083,4.86447 -4.86452,1.792173 -10.2837,2.688259 -16.25757,2.68826 -8.61953,-10e-7 -15.93756,-2.922948 -21.95412,-8.768848 -6.69933,-6.443275 -10.04898,-15.105437 -10.04898,-25.9865117 0,-11.3077149 3.435,-20.3752493 10.305,-27.2026293 6.14457,-6.101857 13.41994,-9.152815 21.82611,-9.152885 9.77157,7e-5 17.43096,2.752333 22.97822,8.256798 5.37646,5.291235 8.06471,12.3105728 8.06478,21.05803576 -7e-5,2.68829764 -0.3201,5.16320114 -0.96009,7.42471774 z M 165.70674,-19.850468 c -5.41923,6e-5 -9.96366,1.74956 -13.63332,5.248507 -3.49903,3.328373 -5.48322,7.4674357 -5.95258,12.4172006 l 37.95567,0 c -5e-5,-4.9070941 -1.5362,-9.0034856 -4.60844,-12.2891876 -3.37104,-3.584289 -7.95815,-5.37646 -13.76133,-5.37652 z"
         style=""
         id="path25" />
      <path
         d="m 266.6445,6.6480935 -49.41278,0 c -2e-5,8.0221335 2.19753,14.1880565 6.59264,18.4977885 3.88301,3.75504 8.87549,5.632553 14.97745,5.632544 6.95529,9e-6 12.75851,-2.026852 17.40968,-6.080588 l 5.12049,8.768848 c -1.87757,1.877519 -4.75785,3.499007 -8.64083,4.86447 -4.86452,1.792173 -10.28371,2.688259 -16.25757,2.68826 -8.61953,-10e-7 -15.93756,-2.922948 -21.95413,-8.768848 -6.69932,-6.443275 -10.04897,-15.105437 -10.04897,-25.9865117 0,-11.3077149 3.43499,-20.3752493 10.305,-27.2026293 6.14457,-6.101857 13.41993,-9.152815 21.82611,-9.152885 9.77156,7e-5 17.43096,2.752333 22.97822,8.256798 5.37645,5.291235 8.06471,12.3105728 8.06478,21.05803576 -7e-5,2.68829764 -0.3201,5.16320114 -0.96009,7.42471774 z M 237.13764,-19.850468 c -5.41922,6e-5 -9.96365,1.74956 -13.63331,5.248507 -3.49903,3.328373 -5.48322,7.4674357 -5.95258,12.4172006 l 37.95567,0 c -6e-5,-4.9070941 -1.5362,-9.0034856 -4.60845,-12.2891876 -3.37104,-3.584289 -7.95814,-5.37646 -13.76133,-5.37652 z"
         style=""
         id="path27" />
      <path
         d="m 64.384944,144.60703 -18.881825,0 0,-93.769063 c 12.033142,-0.426614 19.735212,-0.639968 23.106234,-0.640062 13.099887,9.4e-5 23.468879,3.979141 31.107007,11.937154 7.638,7.958177 11.45703,18.55119 11.45711,31.779071 -8e-5,33.79528 -15.596237,50.6929 -46.788526,50.6929 z m -6.080587,-82.24795 0,70.08677 c 2.858917,0.42672 6.40059,0.64008 10.625027,0.64007 8.960824,1e-5 16.001497,-3.36031 21.122041,-10.08098 5.120436,-6.72062 7.680681,-16.05485 7.680743,-28.002704 -6.2e-5,-22.18874 -9.963682,-33.283135 -29.89089,-33.283218 -1.194812,8.3e-5 -4.373783,0.213437 -9.536921,0.640062 z"
         style=""
         id="path29" />
      <path
         d="m 163.65854,136.73427 c -4.86451,6.10192 -12.31056,9.15288 -22.33816,9.15288 -5.37654,0 -10.03832,-1.95218 -13.98535,-5.85656 -3.94706,-3.90437 -5.92058,-8.75817 -5.92057,-14.56141 -1e-5,-6.95531 3.04028,-12.83321 9.12088,-17.6337 6.08056,-4.80043 13.83597,-7.20066 23.26625,-7.2007 2.5602,4e-5 5.46181,0.55476 8.70484,1.66416 -5e-5,-11.094351 -4.94986,-16.641549 -14.84944,-16.641608 -7.59542,5.9e-5 -13.44131,2.048255 -17.53769,6.144594 l -5.1205,-10.176984 c 2.30421,-1.877449 5.49385,-3.48827 9.56893,-4.832467 4.07504,-1.34406 7.96874,-2.016125 11.68113,-2.016195 9.94225,7e-5 17.16427,2.26162 21.66609,6.784656 4.50171,4.523163 6.75259,11.713184 6.75265,21.570084 l 0,24.57838 c -6e-5,6.01659 1.79212,10.02764 5.37652,12.03316 l 0,6.08059 c -4.94987,0 -8.65156,-0.70407 -11.10507,-2.11221 -2.45362,-1.40813 -4.21379,-3.73369 -5.28051,-6.97667 z m -1.15211,-25.79449 c -3.84042,-0.85339 -6.52867,-1.28009 -8.06478,-1.28013 -6.14463,4e-5 -11.15844,1.57886 -15.04146,4.73646 -3.88306,3.15767 -5.82458,6.89136 -5.82456,11.20108 -2e-5,7.12604 4.20305,10.68904 12.60922,10.68904 6.14456,0 11.58508,-2.92294 16.32158,-8.76885 z"
         style=""
         id="path31" />
      <path
         d="m 218.51184,145.88715 -3.20031,0 -29.37884,-70.022764 13.31328,0 18.11375,48.004644 18.49779,-48.004644 12.73723,0 z"
         style=""
         id="path33" />
    </g>
  </g>
</svg>
